<svg width="67.9144" height="68.524" x="335" y="271.738" version="1.1" preserveAspectRatio="none" viewBox="2.9230093955993652 2.4999122619628906 94.15557098388672 95.00082397460938">
  <g transform="matrix(1 0 0 1 0 0)" style="fill: #559092;"><path d="M87.18,45.225c-1.685,0.331-3.14,1.168-4.241,2.322c-1.354,1.4-3.035,2.194-4.74,2.032l-7.969-0.771  c-1.364-0.128-2.577-1.068-2.988-2.464c-0.406-1.387,0.097-2.826,1.162-3.674l13.549-10.326c1.362-1.036,3.204-1.245,5.092-0.768  c3.088,0.803,6.486-0.291,8.485-3.023c2.616-3.575,1.839-8.594-1.737-11.21c-3.575-2.616-8.595-1.838-11.21,1.737  c-1.014,1.386-1.517,2.988-1.544,4.583c-0.045,1.946-0.744,3.67-2.106,4.707l-14.1,10.759c-0.746,0.571-1.804,0.624-2.615,0.058  c-0.806-0.562-1.124-1.564-0.854-2.457l0.573-1.926c0.487-1.641,1.85-2.896,3.655-3.625c2.967-1.176,5.063-4.066,5.063-7.451  c0-4.43-3.591-8.021-8.021-8.021c-4.429,0-8.021,3.591-8.021,8.021c0,1.718,0.541,3.307,1.46,4.611  c1.113,1.597,1.568,3.402,1.08,5.042l-0.475,1.58c-0.336,1.134-1.387,1.96-2.63,1.958c-1.13-0.002-2.099-0.688-2.515-1.667  l-6.441-15.668c-0.648-1.584-0.375-3.417,0.573-5.117c1.571-2.776,1.392-6.343-0.733-8.979c-2.779-3.449-7.829-3.992-11.278-1.212  c-3.45,2.779-3.992,7.829-1.213,11.278c1.076,1.336,2.495,2.235,4.03,2.673c1.868,0.546,3.354,1.665,4.004,3.249l6.355,15.461  c0.153,0.362,0.237,0.761,0.237,1.179c0,1.672-1.355,3.026-3.026,3.026c-0.512,0-0.995-0.127-1.418-0.352l-7.677-3.989  c-1.526-0.777-2.513-2.345-2.902-4.253c-0.618-3.13-3.08-5.717-6.409-6.33c-4.355-0.804-8.539,2.076-9.343,6.433  s2.077,8.54,6.434,9.343c1.688,0.312,3.35,0.068,4.799-0.599c1.772-0.805,3.629-0.925,5.153-0.147l7.98,4.14  c0.839,0.424,1.415,1.292,1.415,2.296c0,1.251-0.893,2.293-2.076,2.523l-18.916,3.753c-1.68,0.329-3.425-0.296-4.907-1.557  c-2.418-2.083-5.951-2.6-8.949-1.028C3.3,53.433,1.785,58.28,3.84,62.203c2.055,3.925,6.904,5.44,10.828,3.385  c1.521-0.797,2.679-2.014,3.406-3.433c0.897-1.728,2.287-2.967,3.966-3.296l18.583-3.689c0.201-0.043,0.409-0.066,0.623-0.066  c1.639,0,2.969,1.33,2.969,2.97c0,0.699-0.241,1.342-0.646,1.85L40.8,63.438c-1.07,1.335-2.808,1.982-4.754,1.975  c-3.189-0.031-6.224,1.852-7.503,4.985c-1.675,4.102,0.293,8.784,4.396,10.458c4.101,1.674,8.784-0.294,10.458-4.396  c0.648-1.59,0.748-3.267,0.391-4.82c-0.428-1.899-0.167-3.742,0.905-5.077l2.976-3.795c0.659-0.816,1.792-1.155,2.824-0.76  c0.999,0.381,1.608,1.333,1.601,2.341l-0.309,14.269c-0.03,1.712-1.009,3.285-2.553,4.471c-2.543,1.927-3.79,5.272-2.885,8.534  c1.185,4.269,5.607,6.769,9.875,5.583c4.267-1.186,6.768-5.607,5.583-9.875c-0.46-1.655-1.406-3.042-2.64-4.053  c-1.501-1.24-2.422-2.857-2.39-4.568l0.281-13.313c-0.008-1.5,0.904-2.916,2.389-3.479c1.469-0.557,3.073-0.116,4.064,0.985  l3.482,3.868c1.16,1.258,1.542,3.07,1.247,4.994c-0.505,3.15,0.908,6.431,3.817,8.16c3.808,2.264,8.729,1.012,10.994-2.796  c2.264-3.808,1.012-8.73-2.797-10.994c-1.475-0.878-3.118-1.226-4.709-1.102c-1.941,0.142-3.725-0.39-4.886-1.647l-3.734-4.113  c-0.905-0.991-1.146-2.481-0.492-3.743c0.643-1.235,1.956-1.895,3.261-1.762l8.032,0.781c1.704,0.162,3.198,1.257,4.262,2.888  c1.727,2.683,4.967,4.183,8.288,3.529c4.347-0.853,7.178-5.07,6.323-9.417C95.743,47.201,91.526,44.37,87.18,45.225z M93.819,21.251  c0.133-1.174,1.062-0.648,1.568-0.048c0.002,0.002,0.004,0.005,0.007,0.008c0.559,0.67,0.994,2.178,0.115,2.771  c-0.82,0.553-1.405-0.543-1.54-1.254C93.88,22.258,93.764,21.746,93.819,21.251z M67.449,21.135  c0.133-1.174,1.062-0.648,1.568-0.048c0.002,0.002,0.004,0.005,0.007,0.008c0.559,0.67,0.994,2.178,0.115,2.771  c-0.82,0.553-1.405-0.543-1.54-1.254C67.51,22.142,67.394,21.63,67.449,21.135z M43.669,9.135c-0.09-0.469-0.206-0.981-0.15-1.476  c0.133-1.174,1.062-0.648,1.568-0.048c0.002,0.002,0.004,0.005,0.007,0.008c0.559,0.67,0.994,2.178,0.115,2.771  C44.389,10.943,43.804,9.847,43.669,9.135z M30.341,33.507c-0.82,0.553-1.405-0.543-1.54-1.254c-0.09-0.469-0.206-0.981-0.15-1.476  c0.133-1.174,1.062-0.648,1.568-0.048c0.002,0.002,0.004,0.005,0.007,0.008C30.784,31.407,31.22,32.915,30.341,33.507z   M17.213,57.787c-0.82,0.553-1.405-0.543-1.54-1.254c-0.09-0.47-0.206-0.981-0.15-1.477c0.133-1.174,1.062-0.648,1.568-0.048  c0.002,0.003,0.004,0.005,0.007,0.008C17.656,55.687,18.092,57.194,17.213,57.787z M42.538,74.05  c-0.82,0.553-1.405-0.543-1.54-1.254c-0.09-0.47-0.206-0.981-0.15-1.477c0.133-1.174,1.061-0.648,1.568-0.048  c0.002,0.003,0.004,0.005,0.007,0.008C42.981,71.949,43.417,73.457,42.538,74.05z M58.97,86.886  c0.133-1.174,1.062-0.648,1.567-0.048c0.002,0.003,0.004,0.005,0.007,0.008c0.559,0.67,0.994,2.178,0.115,2.771  c-0.819,0.553-1.404-0.543-1.539-1.254C59.03,87.893,58.914,87.381,58.97,86.886z M80.925,70.39  c0.133-1.174,1.062-0.648,1.568-0.048c0.002,0.003,0.004,0.005,0.007,0.008c0.559,0.67,0.994,2.178,0.115,2.771  c-0.82,0.553-1.405-0.543-1.54-1.254C80.985,71.396,80.869,70.885,80.925,70.39z M63.796,51.281  c-1.988,1.342-3.408-1.317-3.733-3.042c-0.217-1.138-0.5-2.379-0.365-3.578c0.322-2.847,2.573-1.572,3.804-0.117  c0.004,0.006,0.01,0.012,0.016,0.019C64.872,46.187,65.929,49.843,63.796,51.281z M95.277,53.373  c-0.82,0.553-1.405-0.543-1.54-1.255c-0.09-0.47-0.206-0.981-0.15-1.477c0.133-1.174,1.062-0.648,1.568-0.048  c0.002,0.002,0.004,0.005,0.007,0.008C95.721,51.271,96.156,52.779,95.277,53.373z"></path></g>
</svg>